<?xml version="1.0" standalone="no"?>
<svg xmlns="http://www.w3.org/2000/svg" viewBox="0 0 156.876 36" width="156.876" height="36"><g fill="#5eff00" color="#5eff00" transform="translate(0 6) scale(0.4528302)"><svg width="52.0" height="53.0" x="0.0" y="0.0" viewBox="0 0 52 53"><path fill="currentColor" fill-rule="evenodd" d="M49.227 40.625c-.479.435-.914.914-1.349 1.349l-.522.521c-.826.87-1.74 1.696-2.653 2.48-2.087 1.826-4.436 3.435-7.002 4.653a26.232 26.232 0 0 1-13.266 2.48 25.973 25.973 0 0 1-5.436-1c1.565-1.219 5.262-4.525 9.003-6.177.609-.305 1.261-.522 1.87-.696 1.522.218 3.045.305 4.61.305 2.784 0 5.611-.522 8.438-1.436a45.11 45.11 0 0 0 6.307-2.479zm-31.96-.45l.34.015a36.584 36.584 0 0 0 4.784 2.175 32.893 32.893 0 0 0 5.002 1.435c-.391.174-.87.435-1.392.696-2.479 1.217-6.002 3.132-8.568 6.09a27.35 27.35 0 0 1-10.439-6.873c1.566-.827 5.263-2.957 8.873-3.436.61-.087 1.174-.13 1.74-.087zm4.428-8.727c2.784.826 5.61 1.435 8.481 2.044.174 1.653.697 6.698 4.916 9.96h-.131c-3.262.044-6.524-.348-9.569-1.218-1.174-1.26-4.697-6.828-3.697-10.786zm9.873 2.392c.61.087 1.218.218 1.827.348 5.48 1.13 11.134 2.262 15.353 5.61-.348.175-.696.305-1.043.479-3.567 1.566-7.22 2.74-10.918 3.088-1.695-1.305-5.61-5.698-5.219-9.525zM.34 30.056c1.61.217 3.61.435 5.393 1.044.652.218 1.261.478 1.827.783 2.348 2.784 5.089 5.263 8.22 7.22-.348.087-.783.173-1.305.26-2.13.523-5.436 1.436-8.35 3.35a25.637 25.637 0 0 1-2.436-3.393c-1.827-3-2.87-6.176-3.35-9.264zm11.265-2.827a35.615 35.615 0 0 0 4.653 2.305 47.041 47.041 0 0 0 4.132 1.523c-.087 1.913-.217 6.654 3.175 10.656a33.07 33.07 0 0 1-10.83-6.003c-1.043-1.913-2.435-6.09-1.13-8.481zm-9.873-8.177C3.34 21.4 5.689 23.14 7.82 24.794c.87.695 1.783 1.347 2.74 1.913-.348 1.305-1.044 4.393.304 7.438A34.01 34.01 0 0 1 4.82 26.49c-.957-1.696-1.74-3.436-2.436-5.176a22.12 22.12 0 0 1-.652-2.262zm43.971 2.87c.435.131.958.305 1.48.436 1.305.348 2.914.696 4.654.913a32.14 32.14 0 0 1-.305 8.699c-.087.696-.217 1.392-.348 2.088-.391-2.088-1.131-4.22-2.044-6.22-.914-2.044-2.088-4.045-3.437-5.915zm-4.566-3.87a33.991 33.991 0 0 1 6.046 7.655c.956 1.696 1.74 3.436 2.435 5.176.261.739.479 1.522.653 2.261-1.61-2.348-3.958-4.088-6.09-5.741a23.779 23.779 0 0 0-2.74-1.914c.348-1.305 1.044-4.393-.304-7.437zm-40.362.043c.435 2.131 1.174 4.263 2.088 6.263.913 2.045 2.087 4.045 3.436 5.915-.392-.13-.914-.26-1.48-.435a35.296 35.296 0 0 0-4.653-.913c-.305-3.001-.174-5.915.26-8.742.088-.696.218-1.392.349-2.088zm27.662-7.611a33.068 33.068 0 0 1 10.83 6.002c1.044 1.914 2.435 6.09 1.13 8.481a35.608 35.608 0 0 0-4.653-2.305 47.144 47.144 0 0 0-4.132-1.522c.087-1.914.218-6.655-3.175-10.656zm17.397-1a25.608 25.608 0 0 1 2.436 3.392c1.827 3.001 2.87 6.176 3.349 9.264-1.61-.217-3.61-.435-5.393-1.044a11.545 11.545 0 0 1-1.827-.782c-2.305-2.784-5.045-5.263-8.177-7.22.348-.087.783-.174 1.261-.261 2.132-.522 5.437-1.436 8.351-3.35zm-28.792-.74c3.262-.043 6.48.392 9.568 1.218 1.174 1.261 4.697 6.829 3.697 10.787-2.783-.827-5.61-1.48-8.481-2.045-.174-1.652-.696-6.698-4.915-9.96zm-1.827.087c1.696 1.305 5.61 5.698 5.219 9.525-.609-.087-1.218-.217-1.827-.348-5.48-1.13-11.134-2.261-15.353-5.61.348-.174.696-.305 1.044-.479 3.566-1.566 7.22-2.74 10.917-3.088zm19.354-7.22a27.35 27.35 0 0 1 10.439 6.872c-1.566.827-5.263 2.958-8.873 3.436-.608.087-1.174.13-1.74.087a36.584 36.584 0 0 0-4.784-2.175 32.893 32.893 0 0 0-5.002-1.435c.392-.174.87-.435 1.392-.696 2.48-1.218 6.002-3.131 8.568-6.089zm-20.224.957C18.433.611 23.044-.302 27.61.09c1.827.13 3.654.478 5.437 1C31.481 2.307 27.741 5.613 24 7.265c-.609.305-1.26.522-1.87.696a32.406 32.406 0 0 0-4.61-.304c-2.784 0-5.61.522-8.394 1.435a45.113 45.113 0 0 0-6.307 2.48c.478-.436.913-.914 1.348-1.349l.522-.522c.827-.87 1.74-1.696 2.653-2.48 2.088-1.826 4.437-3.435 7.003-4.653z"></path></svg></g><path fill="#000000" fill-rule="nonzero" d="M10.10 12.05Q10.56 12.05 10.79 12.40Q11.02 12.74 11.02 13.15L11.02 13.15Q11.02 13.66 10.86 13.86Q10.70 14.06 10.27 14.28L10.27 14.28Q9.26 14.76 7.78 15.05Q6.29 15.34 4.58 15.34L4.58 15.34Q2.45 15.34 1.45 14.62Q0.46 13.90 0.23 12.88Q0 11.86 0 10.20L0 10.20Q0 8.42 0.14 6.71Q0.29 4.99 0.65 2.33L0.65 2.33Q0.82 1.18 1.56 0.66Q2.30 0.14 3.19 0.14L3.19 0.14Q3.94 0.14 5.62 0.10L5.62 0.10L7.70 0.07Q9 0.07 9.58 0.14L9.58 0.14Q10.30 0.29 10.64 0.47Q10.99 0.65 10.99 1.08L10.99 1.08Q10.99 1.56 10.67 2.02Q10.34 2.47 9.70 2.47L9.70 2.47Q8.95 2.47 7.56 2.38L7.56 2.38Q6.17 2.28 5.47 2.28L5.47 2.28Q4.87 2.28 4.30 2.35L4.30 2.35Q3.62 2.40 3.34 2.52Q3.05 2.64 3.00 2.93L3.00 2.93Q2.66 5.40 2.66 6.58L2.66 6.58Q3.22 6.65 3.74 6.65L3.74 6.65Q4.42 6.65 5.18 6.58Q5.95 6.50 6.17 6.48L6.17 6.48Q7.44 6.36 8.35 6.36L8.35 6.36Q8.88 6.36 9.16 6.55Q9.43 6.74 9.43 7.08L9.43 7.08Q9.43 7.61 9.16 7.90Q8.88 8.18 8.18 8.33L8.18 8.33Q7.34 8.50 6.11 8.59Q4.87 8.69 3.70 8.69L3.70 8.69Q3.29 8.69 2.57 8.64L2.57 8.64Q2.50 10.10 2.50 11.35L2.50 11.35Q2.50 13.06 4.75 13.06L4.75 13.06Q5.95 13.06 6.74 12.89Q7.54 12.72 8.57 12.41L8.57 12.41Q9.53 12.05 10.10 12.05L10.10 12.05ZM19.44 8.95Q20.54 8.95 20.54 10.20L20.54 10.20Q20.54 10.85 20.10 11.14Q19.66 11.42 19.01 11.42L19.01 11.42Q18.82 11.42 18.60 11.40Q18.38 11.38 18.14 11.35L18.14 11.35Q17.42 11.23 16.85 11.23L16.85 11.23Q16.44 11.23 15.62 11.33L15.62 11.33Q14.76 11.42 14.30 11.42L14.30 11.42Q13.66 11.42 13.15 11.17Q12.65 10.92 12.65 10.32L12.65 10.32Q12.65 9.48 13.27 9.23Q13.90 8.98 15.02 8.98L15.02 8.98L15.82 9Q16.39 9.05 16.70 9.05L16.70 9.05L18.46 9L19.44 8.95ZM33.91 10.97Q33.91 12.10 33.40 12.90Q32.88 13.70 31.70 14.38L31.70 14.38Q30.91 14.86 29.86 15.10Q28.80 15.34 27.72 15.34L27.72 15.34Q26.62 15.34 24.98 14.62L24.98 14.62Q23.81 14.04 23.12 13.25Q22.44 12.46 22.44 11.52L22.44 11.52Q22.44 10.87 22.73 10.57Q23.02 10.27 23.66 10.27L23.66 10.27Q24 10.27 24.36 10.55Q24.72 10.82 24.79 11.09L24.79 11.09Q25.13 12.07 25.97 12.59Q26.81 13.10 28.06 13.10L28.06 13.10Q29.50 13.10 30.47 12.58Q31.44 12.05 31.44 11.16L31.44 11.16Q31.44 10.30 30.38 9.62Q29.33 8.95 28.22 8.69L28.22 8.69Q26.64 8.26 25.42 7.66L25.42 7.66Q24.14 7.03 23.52 6.12Q22.90 5.21 22.90 4.20L22.90 4.20Q22.90 3.26 23.54 2.29Q24.19 1.32 25.08 0.89L25.08 0.89Q25.56 0.65 26.72 0.37Q27.89 0.10 28.42 0.10L28.42 0.10Q29.11 0.10 29.95 0.26Q30.79 0.43 31.32 0.74L31.32 0.74Q32.38 1.34 32.88 1.82Q33.38 2.30 33.38 3.02L33.38 3.02Q33.38 3.46 33.06 3.79Q32.74 4.13 31.94 4.13L31.94 4.13Q31.75 4.13 31.56 3.96Q31.37 3.79 31.08 3.46L31.08 3.46Q30.70 2.95 30.34 2.78L30.34 2.78Q29.98 2.66 29.29 2.52Q28.61 2.38 28.08 2.38L28.08 2.38Q27.50 2.38 26.88 2.62Q26.26 2.86 25.84 3.30Q25.42 3.74 25.42 4.32L25.42 4.32Q25.42 4.80 25.86 5.15Q26.30 5.50 26.93 5.71L26.93 5.71Q27.65 6.00 28.49 6.22L28.49 6.22Q29.59 6.55 30.30 6.83Q31.01 7.10 31.68 7.51L31.68 7.51Q32.86 8.21 33.38 8.94Q33.91 9.67 33.91 10.97L33.91 10.97ZM39.14 1.39Q39.14 2.09 39.10 3.24L39.10 3.24L39.07 4.80Q39.07 7.08 39.41 8.62L39.41 8.62Q39.89 10.78 40.85 11.95L40.85 11.95Q41.74 12.98 43.03 12.98L43.03 12.98Q44.04 12.98 44.83 12.37Q45.62 11.76 46.06 10.85L46.06 10.85Q46.78 9.36 46.78 7.18L46.78 7.18Q46.78 5.86 46.61 4.06L46.61 4.06Q46.46 2.04 46.46 1.03L46.46 1.03Q46.46 0.50 47.09 0.35Q47.71 0.19 48.38 0.19L48.38 0.19Q48.62 0.19 48.94 0.50Q49.25 0.82 49.25 1.18L49.25 1.18Q49.25 1.90 49.18 2.54L49.18 2.54Q49.13 3.26 49.13 3.55L49.13 3.55Q49.13 4.46 49.22 6.10L49.22 6.10Q49.25 6.50 49.27 7.08Q49.30 7.66 49.30 8.40L49.30 8.40Q49.30 10.03 48.52 11.65Q47.74 13.27 46.34 14.32Q44.95 15.36 43.20 15.36L43.20 15.36Q40.51 15.36 39 13.62Q37.49 11.88 36.94 9.12L36.94 9.12Q36.62 7.54 36.54 5.81Q36.46 4.08 36.46 1.18L36.46 1.18Q36.46 0.79 36.83 0.46Q37.20 0.12 37.63 0.12L37.63 0.12Q39.14 0.12 39.14 1.39L39.14 1.39ZM66.38 0.14Q66.72 0.14 67.21 0.59Q67.70 1.03 67.70 1.34L67.70 1.34Q67.70 2.81 67.61 5.35L67.61 5.35Q67.58 5.98 67.56 6.85Q67.54 7.73 67.54 8.88L67.54 8.88Q67.54 12.53 67.97 14.26L67.97 14.26Q67.94 14.83 67.51 15.08Q67.08 15.34 66.65 15.34L66.65 15.34Q65.69 15.34 65.39 14.66Q65.09 13.99 65.09 12.74L65.09 12.74Q65.09 8.11 65.18 4.22L65.18 4.22Q62.42 7.30 60.89 9.38L60.89 9.38Q60.89 9.38 60.46 9.67L60.46 9.67Q60.05 10.03 59.78 10.03L59.78 10.03Q59.16 10.03 58.75 9.72Q58.34 9.41 57.96 8.81L57.96 8.81L56.81 7.18Q55.61 5.50 55.06 4.63L55.06 4.63Q55.06 6.84 55.27 10.63L55.27 10.63Q55.44 12.82 55.44 13.92L55.44 13.92Q55.44 14.50 55.15 14.89Q54.86 15.29 54.24 15.29L54.24 15.29Q53.62 15.29 53.22 15.05Q52.82 14.81 52.80 14.33L52.80 14.33Q52.82 13.92 52.82 12.98L52.82 12.98Q52.82 11.11 52.70 8.42L52.70 8.42L52.66 7.13L52.61 5.45Q52.58 4.70 52.56 3.71Q52.54 2.71 52.54 1.54L52.54 1.54Q52.54 0.10 54.10 0.10L54.10 0.10Q54.58 0.10 55.07 0.34Q55.56 0.58 55.80 1.03L55.80 1.03Q55.99 1.87 57.22 3.82Q58.44 5.76 59.62 7.46L59.62 7.46Q60.67 6.12 61.34 5.45L61.34 5.45Q62.50 4.27 63.25 3.26Q64.01 2.26 64.90 0.84L64.90 0.84Q65.11 0.55 65.52 0.35Q65.93 0.14 66.38 0.14L66.38 0.14ZM81.24 12.05Q81.70 12.05 81.92 12.40Q82.15 12.74 82.15 13.15L82.15 13.15Q82.15 13.66 82.00 13.86Q81.84 14.06 81.41 14.28L81.41 14.28Q80.40 14.76 78.91 15.05Q77.42 15.34 75.72 15.34L75.72 15.34Q73.58 15.34 72.59 14.62Q71.59 13.90 71.36 12.88Q71.14 11.86 71.14 10.20L71.14 10.20Q71.14 8.42 71.28 6.71Q71.42 4.99 71.78 2.33L71.78 2.33Q71.95 1.18 72.70 0.66Q73.44 0.14 74.33 0.14L74.33 0.14Q75.07 0.14 76.75 0.10L76.75 0.10L78.84 0.07Q80.14 0.07 80.71 0.14L80.71 0.14Q81.43 0.29 81.78 0.47Q82.13 0.65 82.13 1.08L82.13 1.08Q82.13 1.56 81.80 2.02Q81.48 2.47 80.83 2.47L80.83 2.47Q80.09 2.47 78.70 2.38L78.70 2.38Q77.30 2.28 76.61 2.28L76.61 2.28Q76.01 2.28 75.43 2.35L75.43 2.35Q74.76 2.40 74.47 2.52Q74.18 2.64 74.14 2.93L74.14 2.93Q73.80 5.40 73.80 6.58L73.80 6.58Q74.35 6.65 74.88 6.65L74.88 6.65Q75.55 6.65 76.32 6.58Q77.09 6.50 77.30 6.48L77.30 6.48Q78.58 6.36 79.49 6.36L79.49 6.36Q80.02 6.36 80.29 6.55Q80.57 6.74 80.57 7.08L80.57 7.08Q80.57 7.61 80.29 7.90Q80.02 8.18 79.32 8.33L79.32 8.33Q78.48 8.50 77.24 8.59Q76.01 8.69 74.83 8.69L74.83 8.69Q74.42 8.69 73.70 8.64L73.70 8.64Q73.63 10.10 73.63 11.35L73.63 11.35Q73.63 13.06 75.89 13.06L75.89 13.06Q77.09 13.06 77.88 12.89Q78.67 12.72 79.70 12.41L79.70 12.41Q80.66 12.05 81.24 12.05L81.24 12.05ZM92.42 8.95Q93.26 10.37 94.12 11.46Q94.97 12.55 96.36 14.14L96.36 14.14Q96.53 14.30 96.53 14.52L96.53 14.52Q96.53 14.86 96.16 15.10Q95.78 15.34 95.26 15.34L95.26 15.34Q94.51 15.34 93.65 14.71L93.65 14.71Q92.88 14.16 92.28 13.25Q91.68 12.34 90.89 10.87L90.89 10.87Q90.26 9.74 90.14 9.55L90.14 9.55Q89.21 9.94 87.22 10.03L87.22 10.03Q87.22 10.85 87.36 12.24L87.36 12.24Q87.50 13.68 87.50 14.33L87.50 14.33Q87.50 14.76 87.08 15.05Q86.66 15.34 86.14 15.34L86.14 15.34Q85.51 15.34 85.18 14.83L85.18 14.83Q84.84 14.16 84.74 13.22Q84.65 12.29 84.65 10.99L84.65 10.99Q84.65 9.62 84.82 7.90L84.82 7.90Q84.96 5.98 84.96 5.06L84.96 5.06Q84.96 4.32 84.82 3.07L84.82 3.07Q84.79 2.86 84.74 2.33Q84.70 1.80 84.70 1.37L84.70 1.37Q84.70 1.03 84.95 0.78Q85.20 0.53 85.49 0.43L85.49 0.43Q87.43 0.12 89.28 0.12L89.28 0.12Q92.42 0.12 94.49 1.30Q96.55 2.47 96.55 4.87L96.55 4.87Q96.55 5.62 96.23 6.30Q95.90 6.98 95.35 7.44L95.35 7.44Q93.89 8.57 92.42 8.95L92.42 8.95ZM94.03 4.80Q94.03 3.65 92.81 2.92Q91.58 2.18 89.33 2.18L89.33 2.18Q88.32 2.18 87.34 2.42L87.34 2.42L87.36 3.65Q87.36 4.70 87.29 5.71L87.29 5.71Q87.22 6.72 87.22 7.87L87.22 7.87Q87.62 7.78 88.08 7.74Q88.54 7.70 88.68 7.68L88.68 7.68Q89.74 7.58 90.31 7.44L90.31 7.44Q91.39 7.10 92.10 6.83Q92.81 6.55 93.42 6.04Q94.03 5.52 94.03 4.80L94.03 4.80ZM110.86 1.99Q111.22 2.42 111.36 2.69Q111.50 2.95 111.50 3.19L111.50 3.19Q111.50 3.48 111.13 3.86Q110.76 4.25 110.40 4.25L110.40 4.25Q109.92 4.25 109.63 4.10Q109.34 3.96 109.15 3.65L109.15 3.65Q108.77 3.07 108.22 2.65Q107.66 2.23 106.49 2.23L106.49 2.23Q105.48 2.23 104.20 2.69Q102.91 3.14 102.36 3.82L102.36 3.82Q101.88 4.42 101.53 5.64Q101.18 6.86 101.18 8.02L101.18 8.02Q101.18 9.41 101.80 10.57Q102.41 11.74 103.57 12.43Q104.74 13.13 106.37 13.13L106.37 13.13Q107.26 13.13 108.20 12.78Q109.15 12.43 109.85 11.64L109.85 11.64L109.82 11.64Q110.26 11.18 110.90 11.18L110.90 11.18Q111.29 11.18 111.64 11.52Q111.98 11.86 111.98 12.19L111.98 12.19Q111.98 12.55 111.88 12.83Q111.77 13.10 111.48 13.44L111.48 13.44Q110.50 14.54 109.15 14.95Q107.81 15.36 105.94 15.36L105.94 15.36Q104.28 15.36 102.59 14.57Q100.90 13.78 99.98 12.65L99.98 12.65Q99.50 11.95 99.06 10.64Q98.62 9.34 98.62 8.52L98.62 8.52Q98.62 6.43 99.25 4.55Q99.89 2.66 101.16 1.54L101.16 1.54Q102 0.77 103.58 0.38Q105.17 0 106.49 0L106.49 0Q108.10 0 109.02 0.44Q109.94 0.89 110.86 1.99L110.86 1.99ZM124.42 12.05Q124.87 12.05 125.10 12.40Q125.33 12.74 125.33 13.15L125.33 13.15Q125.33 13.66 125.17 13.86Q125.02 14.06 124.58 14.28L124.58 14.28Q123.58 14.76 122.09 15.05Q120.60 15.34 118.90 15.34L118.90 15.34Q116.76 15.34 115.76 14.62Q114.77 13.90 114.54 12.88Q114.31 11.86 114.31 10.20L114.31 10.20Q114.31 8.42 114.46 6.71Q114.60 4.99 114.96 2.33L114.96 2.33Q115.13 1.18 115.87 0.66Q116.62 0.14 117.50 0.14L117.50 0.14Q118.25 0.14 119.93 0.10L119.93 0.10L122.02 0.07Q123.31 0.07 123.89 0.14L123.89 0.14Q124.61 0.29 124.96 0.47Q125.30 0.65 125.30 1.08L125.30 1.08Q125.30 1.56 124.98 2.02Q124.66 2.47 124.01 2.47L124.01 2.47Q123.26 2.47 121.87 2.38L121.87 2.38Q120.48 2.28 119.78 2.28L119.78 2.28Q119.18 2.28 118.61 2.35L118.61 2.35Q117.94 2.40 117.65 2.52Q117.36 2.64 117.31 2.93L117.31 2.93Q116.98 5.40 116.98 6.58L116.98 6.58Q117.53 6.65 118.06 6.65L118.06 6.65Q118.73 6.65 119.50 6.58Q120.26 6.50 120.48 6.48L120.48 6.48Q121.75 6.36 122.66 6.36L122.66 6.36Q123.19 6.36 123.47 6.55Q123.74 6.74 123.74 7.08L123.74 7.08Q123.74 7.61 123.47 7.90Q123.19 8.18 122.50 8.33L122.50 8.33Q121.66 8.50 120.42 8.59Q119.18 8.69 118.01 8.69L118.01 8.69Q117.60 8.69 116.88 8.64L116.88 8.64Q116.81 10.10 116.81 11.35L116.81 11.35Q116.81 13.06 119.06 13.06L119.06 13.06Q120.26 13.06 121.06 12.89Q121.85 12.72 122.88 12.41L122.88 12.41Q123.84 12.05 124.42 12.05L124.42 12.05Z" transform="translate(31.548, 10.32)"></path></svg>